<?xml version="1.0" encoding="UTF-8"?> <svg xmlns="http://www.w3.org/2000/svg" width="340" height="380" viewBox="0 0 340 380" fill="none"> <g clip-path="url(#clip0_324_32)"> <rect width="340" height="380" fill="#F7F7F7"></rect> <path fill-rule="evenodd" clip-rule="evenodd" d="M307.908 111.303C292.271 111.915 269.952 113.451 261.254 114.514C256.721 115.069 248.92 116.834 246.618 117.826C243.733 119.068 240.611 121.644 227.636 133.483C210.912 148.745 195.651 163.749 181.81 178.538C175.66 185.11 170.53 190.487 170.411 190.487C170.293 190.487 169.753 190.077 169.214 189.577C168.673 189.076 167.888 188.666 167.469 188.666C167.05 188.666 165.404 190.315 163.813 192.329L160.92 195.993L158.472 195.859C156.156 195.733 155.958 195.811 154.782 197.307C154.098 198.176 153.539 199.021 153.539 199.185C153.539 199.541 149.256 204.144 148.924 204.144C148.163 204.144 122.182 222.125 113.746 228.489C102.208 237.194 95.1148 243.804 92.1811 248.585C91.0861 250.369 90.1901 252.034 90.1901 252.285C90.1901 252.536 89.8836 252.994 89.509 253.303C89.1344 253.613 88.9222 254.017 89.0374 254.203C89.2314 254.515 86.6169 261.239 85.645 262.929C85.3545 263.433 85.5123 264.655 86.1335 266.716C86.9083 269.287 86.9741 270.112 86.5588 272.041C86.0095 274.589 86.1765 275.158 87.4727 275.158C88.6962 275.158 88.5842 275.989 87.217 277.06C85.8929 278.097 85.7685 279.075 86.815 280.226C87.5152 280.996 87.4013 281.084 84.7384 281.821C81.7338 282.652 81.1063 283.741 83.3315 284.262C84.4192 284.516 84.4791 284.703 84.6053 288.264C84.7366 291.948 84.7229 292.001 83.6334 292.001C82.0942 292.001 81.8491 293.648 82.4222 300.141C82.9948 306.634 83.175 307.478 83.9887 307.478C84.3419 307.478 85.5764 308.58 86.7317 309.926C88.5933 312.095 89.5246 312.687 94.8861 315.112C99.4074 317.158 102.385 318.164 106.656 319.089C109.801 319.77 112.849 320.624 113.429 320.986C114.9 321.905 139.581 321.363 141.552 320.369C143.101 319.588 143.475 318.678 144.209 313.905L144.778 310.21H147.676H150.573L150.319 312.827C150.179 314.266 149.974 316.021 149.863 316.726C149.752 317.432 150.153 320.504 150.753 323.555C152.888 334.405 158.969 344.103 167.025 349.503C168.916 350.771 170.734 352.076 171.066 352.404C171.546 352.877 175.719 353 191.217 353H210.764L215.083 350.046C221.308 345.79 226.108 340.024 229.242 333.042C231.232 328.61 231.66 327.127 232.266 322.572C232.729 319.09 232.867 315.986 232.667 313.544L232.362 309.822L234.48 309.505C235.645 309.331 236.681 309.272 236.783 309.373C236.884 309.475 237.498 312.165 238.146 315.353C238.795 318.54 239.552 321.644 239.83 322.25L240.334 323.351L291.616 323.572C319.821 323.694 345.677 323.869 349.073 323.962C352.47 324.054 357.865 324.173 361.063 324.225L366.877 324.321L367.009 328.532L367.14 332.743L405.447 332.859L443.753 332.975V328.876V324.776L466.051 324.775C487.47 324.774 488.478 324.812 491.635 325.743C494.062 326.459 495.711 327.338 497.937 329.104C500.534 331.163 501.232 332.057 502.959 335.533C505.582 340.811 510.384 346.344 515.042 349.458C516.964 350.742 518.605 351.962 518.689 352.169C518.773 352.375 527.948 352.545 539.078 352.545H559.315L563.457 349.7C569.261 345.713 574.033 339.851 577.188 332.832C579.148 328.471 579.594 326.922 580.281 322.103C580.766 318.701 580.969 315.501 580.794 314.023C580.635 312.677 580.593 311.575 580.7 311.575C580.807 311.575 584.36 311.082 588.594 310.479C594.762 309.601 608.738 307.855 609.786 307.831C609.912 307.828 611.294 307.85 612.856 307.88L615.698 307.933L615.829 312.109C615.959 316.21 615.985 316.298 617.333 317.082C619.306 318.231 627.711 318.231 629.683 317.082C631.031 316.298 631.057 316.21 631.187 312.109L631.318 307.933H637.247H643.176V309.653C643.176 312.072 644.227 313.396 646.149 313.396C648.976 313.396 649.122 312.769 649.122 300.634V289.894L651.981 290.096C653.553 290.207 654.942 290.443 655.068 290.62C655.461 291.175 657.341 291.481 657.618 291.036C657.763 290.802 658.404 290.668 659.043 290.737C660.654 290.911 661.396 289.692 660.59 288.194C660.218 287.502 660.104 286.557 660.296 285.774C661.04 282.749 661.103 281.986 660.609 281.986C659.973 281.986 659.927 278.504 660.557 278.117C661.274 277.676 661.094 276.456 660.214 275.791C659.282 275.087 655.068 274.941 655.068 275.613C655.068 275.863 654.056 276.068 652.819 276.068C649.645 276.068 649.122 276.361 649.122 278.138C649.122 278.973 648.916 279.783 648.665 279.938C648.413 280.092 648.207 281.743 648.207 283.606V286.993H646.698C645.868 286.993 644.986 287.195 644.739 287.441C644.452 287.727 630.815 287.898 607.068 287.915L569.846 287.941L568.433 286.619C566.349 284.67 559.372 279.71 558.714 279.71C558.401 279.71 556.443 278.965 554.362 278.054C541.57 272.456 524.335 275.152 513.29 284.479L509.234 287.904H426.189H343.143L343.189 202.579L343.234 117.254L341.445 114.153L339.655 111.052L328.242 111.003C321.964 110.977 312.814 111.112 307.908 111.303ZM338.553 112.19C338.553 112.476 335.617 112.646 330.663 112.647C319.402 112.649 296.826 113.848 283.209 115.166C266.725 116.762 260.945 118.35 255.654 122.733L253.483 124.531L249.936 124.066C247.985 123.811 245.156 123.471 243.649 123.312L240.909 123.022L242.277 121.907C244.846 119.813 247.303 118.627 251.42 117.494C257.731 115.757 263.642 115.044 282.294 113.772C304.865 112.232 338.553 111.285 338.553 112.19ZM338.553 178.638V243.748H332.797H327.04L327.422 224.515C327.633 213.936 327.805 186.879 327.805 164.386V123.49L326.725 122.62C325.75 121.833 324.843 121.75 317.348 121.757C312.785 121.762 301.127 122.164 291.442 122.65C258.316 124.312 258.342 124.304 245.896 136.267C241.57 140.425 232.737 149.358 226.268 156.118C209.8 173.326 211.217 171.972 210.059 171.606C209.511 171.433 209.124 171.129 209.201 170.93C209.574 169.966 238.898 140.081 247.597 131.799C258.598 121.326 260.443 120.104 268.115 118.21C275.773 116.32 309.111 113.856 330.206 113.621L338.553 113.528V178.638ZM341.736 218.104C341.746 273.729 341.63 319.563 341.478 319.959C341.325 320.355 340.913 320.68 340.563 320.68C340.02 320.68 339.928 305.36 339.945 217.231C339.964 115.035 339.975 113.802 340.84 115.376C341.697 116.933 341.717 119.321 341.736 218.104ZM293.484 116.015C292.861 116.469 292.606 117.206 292.606 118.563C292.606 120.784 293.569 121.749 295.787 121.749C298.005 121.749 298.969 120.784 298.969 118.563C298.969 116.341 298.005 115.376 295.787 115.376C295.003 115.376 293.966 115.663 293.484 116.015ZM297.617 118.563C297.617 120.114 297.569 120.156 295.818 120.156C294.086 120.156 294.022 120.102 294.062 118.677C294.085 117.863 294.122 117.082 294.145 116.942C294.168 116.802 294.959 116.751 295.902 116.828C297.53 116.962 297.617 117.05 297.617 118.563ZM326.149 123.375C326.682 123.554 326.741 132.723 326.531 182.87C326.395 215.477 326.151 242.568 325.989 243.073C325.697 243.987 325.408 243.992 264.202 244.144L202.708 244.296V235.627C202.708 230.859 202.865 226.862 203.056 226.744C203.396 226.535 221.69 223.057 239.071 219.896C257.073 216.622 284.644 211.383 289.524 210.309C300.676 207.854 308.287 205.076 312.388 201.962C314.841 200.1 316.149 197.315 317.522 191.029C318.856 184.925 319.565 177.668 321.2 153.387C322.46 134.666 322.086 131.322 318.434 128.649C315.968 126.843 312.239 126.63 292.826 127.183C267.472 127.905 261.339 128.844 255.915 132.839C253.239 134.809 240.717 147.232 233.984 154.596C229.398 159.611 213.13 176.561 212.736 176.734C212.572 176.806 212.321 175.996 212.179 174.934C211.865 172.608 210.584 174.141 228.036 155.96C242.076 141.333 252.815 130.825 255.308 129.279C258.017 127.597 262.689 125.966 266.286 125.446C277.743 123.788 322.74 122.232 326.149 123.375ZM245.017 124.483C247.281 124.73 249.869 125.048 250.769 125.189L252.405 125.444L245.746 131.904C238.18 139.244 220.58 157.114 212.843 165.313C208.284 170.144 207.434 170.845 205.82 171.102C201.907 171.724 199.512 174.095 199.508 177.347C199.507 178.836 198.899 179.659 193.446 185.556C190.113 189.162 185.979 193.64 184.259 195.51C182.539 197.379 181.377 198.422 181.676 197.827C182.502 196.183 181.714 195.964 174.949 195.957C171.189 195.953 168.802 195.767 168.615 195.466C168.252 194.881 169.671 193.218 170.533 193.218C170.872 193.218 171.152 192.86 171.157 192.422C171.169 191.276 191.933 169.182 204.478 156.967C218.775 143.046 239.362 124.087 240.214 124.057C240.592 124.044 242.753 124.235 245.017 124.483ZM313.614 128.144C317.019 128.634 318.72 129.739 320.092 132.352C321.318 134.689 320.97 144.804 318.648 174.327C317.861 184.331 317.76 185.08 316.39 191.17C315.216 196.382 314.119 198.762 311.951 200.797C308.392 204.135 299.479 207.208 284.581 210.231C272.165 212.751 203.059 225.584 202.878 225.404C202.706 225.233 203.619 207.309 203.858 206.166C204.037 205.307 204.589 205.185 210.585 204.68C214.177 204.377 222.673 203.82 229.466 203.441C236.258 203.062 242.124 202.667 242.501 202.565C242.879 202.461 246.686 202.153 250.963 201.878C281.694 199.904 303.306 197.153 308.396 194.569C310.752 193.372 313.013 190.218 314.215 186.451C315.905 181.15 319.8 146.972 319.8 137.436C319.8 134.082 319.675 133.549 318.507 131.944C317.528 130.6 316.61 129.969 314.733 129.354C312.492 128.619 310.835 128.564 297.52 128.779C289.417 128.909 280.155 129.114 276.937 129.232C271.983 129.415 271.543 129.381 274.061 129.008C276.489 128.648 289.115 128.175 307.68 127.748C309.189 127.714 311.859 127.892 313.614 128.144ZM270.066 129.808C269.503 129.916 268.474 129.919 267.779 129.815C267.083 129.71 267.543 129.622 268.801 129.618C270.059 129.615 270.628 129.701 270.066 129.808ZM314.389 130.403C315.344 130.672 316.701 131.596 317.541 132.548L319.016 134.22L318.744 139.251C318.326 146.984 316.699 163.788 315.414 173.644C313.692 186.844 311.901 191.526 307.792 193.569C303.322 195.791 289.834 197.782 265.828 199.764L258.739 200.349L256.138 198.036C254.486 196.567 253.527 195.348 253.508 194.696C253.463 193.103 259.848 133.098 260.107 132.681C260.233 132.477 261.315 132.089 262.511 131.818C270.554 129.997 309.201 128.943 314.389 130.403ZM265.943 130.245C265.628 130.371 265.114 130.371 264.799 130.245C264.485 130.118 264.742 130.015 265.371 130.015C266 130.015 266.257 130.118 265.943 130.245ZM254.571 163.888C252.857 180.026 251.302 193.176 251.118 193.11C250.934 193.045 246.063 188.33 240.295 182.635C233.461 175.887 229.48 172.278 228.869 172.278C227.731 172.278 226.493 173.426 226.493 174.479C226.493 174.903 229.26 177.999 232.643 181.358C236.026 184.718 238.703 187.612 238.593 187.789C238.483 187.965 237.825 188.248 237.131 188.416C236.437 188.584 234.38 190.187 232.56 191.977L229.25 195.231L227.735 193.769C226.902 192.966 226.078 192.308 225.904 192.308C225.358 192.308 219.03 196.466 217.164 198.051C216.184 198.883 215.207 199.455 214.992 199.323C214.343 198.925 214.544 193.493 215.554 184.114C216.48 175.511 216.551 175.195 217.842 173.85C218.575 173.087 219.174 172.261 219.174 172.015C219.174 171.769 220.43 170.344 221.964 168.85C223.499 167.356 228.695 161.934 233.509 156.801C238.324 151.668 244.427 145.237 247.071 142.509C252.15 137.268 257.221 133.15 257.515 134.028C257.611 134.314 256.286 147.75 254.571 163.888ZM208.505 173.644C209.204 175.109 210.9 189.456 211.26 196.953L211.539 202.748L210.295 203.218C208.887 203.751 206.699 203.823 204.596 203.404C202.95 203.077 202.851 202.812 201.303 194.674C200.502 190.459 200.354 188.264 200.487 182.534C200.644 175.81 200.694 175.491 201.794 174.314C203.249 172.755 204.365 172.29 206.364 172.41C207.566 172.482 208.096 172.788 208.505 173.644ZM211.401 176.384C212.058 179.829 213.687 195.852 213.679 198.784C213.675 200.105 213.475 201.492 213.234 201.868C212.902 202.384 212.806 202.218 212.837 201.185C212.914 198.59 210.261 174.848 209.722 173.313C209.468 172.587 209.513 172.575 210.182 173.197C210.591 173.577 211.139 175.011 211.401 176.384ZM229.541 174.752C229.389 175.144 229.047 175.465 228.78 175.465C227.993 175.465 227.675 174.042 228.366 173.617C229.178 173.118 229.901 173.817 229.541 174.752ZM248.79 192.663C250.279 194.228 251.192 195.591 251.192 196.251C251.192 196.837 251.071 197.315 250.924 197.315C250.777 197.315 245.869 192.675 240.018 187.002C230.169 177.457 229.433 176.633 230.108 175.925C230.785 175.216 231.402 175.703 238.613 182.649C242.89 186.768 247.47 191.274 248.79 192.663ZM214.73 181.92C214.401 184.969 214.062 187.533 213.976 187.619C213.889 187.705 213.683 186.183 213.517 184.237C213.35 182.292 213.102 180.283 212.965 179.772C212.728 178.892 214.234 176.375 214.997 176.375C215.179 176.375 215.059 178.87 214.73 181.92ZM199.278 186.373V191.363L193.695 197.689C188.295 203.808 188.043 204.024 185.971 204.307C183.322 204.668 178.009 204.691 178.009 204.341C178.009 204.199 182.074 199.676 187.043 194.289C192.011 188.902 196.662 183.795 197.378 182.939C198.095 182.083 198.815 181.383 198.979 181.383C199.143 181.383 199.278 183.628 199.278 186.373ZM245.367 194.022C248.319 196.968 250.734 199.704 250.734 200.102C250.734 200.709 249.574 200.923 243.61 201.415L236.487 202.003L233.32 198.875L230.153 195.748L232.782 193.07C235.075 190.735 238.064 188.8 239.536 188.699C239.791 188.681 242.415 191.076 245.367 194.022ZM166.249 191.739C165.641 193.372 163.686 195.95 163.056 195.95C162.651 195.95 163.147 195.003 164.369 193.446C165.45 192.069 166.381 190.942 166.439 190.942C166.498 190.942 166.412 191.301 166.249 191.739ZM201.712 201.92L202.091 203.566L198.397 203.852C193.844 204.205 189.901 204.226 189.901 203.897C189.901 203.762 192.112 201.173 194.815 198.143L199.729 192.635L200.531 196.455C200.972 198.555 201.504 201.015 201.712 201.92ZM167.288 195.359C166.831 196.546 166.503 195.704 166.874 194.296C167.128 193.334 167.264 193.207 167.393 193.814C167.488 194.267 167.441 194.962 167.288 195.359ZM230.609 197.998L234.936 202.323H232.854C231.708 202.323 227.011 202.543 222.415 202.813C217.82 203.082 213.957 203.2 213.83 203.074C213.176 202.423 224.283 193.722 225.816 193.685C226.072 193.679 228.229 195.62 230.609 197.998ZM162.839 197.284C162.755 197.517 161.173 199.258 159.323 201.153C156.358 204.192 155.764 204.599 154.306 204.599H152.653L155.268 201.968C158.002 199.219 158.579 197.771 156.942 197.771C156.424 197.771 156.128 197.566 156.283 197.315C156.64 196.74 163.046 196.709 162.839 197.284ZM179.305 197.291C179.221 197.528 177.815 199.264 176.18 201.149L173.207 204.575L165.502 204.587L157.798 204.599L161.328 200.73L164.857 196.86H172.157C176.555 196.86 179.397 197.032 179.305 197.291ZM255.611 200.421C254.016 200.605 253.021 199.813 253.021 198.36V197.239L254.953 198.757L256.884 200.274L255.611 200.421ZM177.567 202.305C176.506 203.567 175.414 204.599 175.143 204.599C174.681 204.599 175.084 204.065 177.968 200.848C179.921 198.67 179.579 199.913 177.567 202.305ZM153.31 202.095C152.199 203.222 151.22 204.144 151.134 204.144C151.048 204.144 151.752 203.222 152.698 202.095C153.644 200.969 154.624 200.047 154.874 200.047C155.125 200.047 154.421 200.969 153.31 202.095ZM202.708 206.231C202.708 209.859 201.673 225.358 201.414 225.609C201.246 225.773 193.492 227.351 184.184 229.117C158.03 234.077 123.347 241.282 119.096 242.637C117.848 243.035 119.254 241.816 126.902 235.872C134.498 229.968 148.872 220.585 165.96 210.376L173.351 205.961L186.314 205.691C193.444 205.543 199.364 205.339 199.469 205.238C199.573 205.137 200.345 205.054 201.184 205.054C202.518 205.054 202.708 205.201 202.708 206.231ZM154.225 205.691C154.225 205.791 148.616 209.624 141.761 214.208C125.367 225.173 116.047 232.102 108.374 239.032C103.101 243.793 101.724 245.321 99.8328 248.508C98.5923 250.598 97.2051 253.352 96.7495 254.628L95.9216 256.949H93.0968H90.2724L90.8524 254.467C91.7438 250.649 94.662 246.28 99.4202 241.636C104.972 236.219 121.947 223.404 136.749 213.455L148.507 205.553L151.366 205.531C152.939 205.519 154.225 205.591 154.225 205.691ZM171.568 205.69C171.463 205.789 167.981 207.908 163.83 210.398C145.147 221.605 133.648 229.178 124.494 236.302L115.118 243.6L111.124 244.586C107.871 245.39 104.756 246.561 101.502 248.204C101.308 248.302 101.559 247.698 102.059 246.861C103.428 244.573 115.561 234.02 123.58 228.143C127.479 225.285 136.518 219.023 143.666 214.228L156.663 205.509H164.211C168.362 205.509 171.672 205.591 171.568 205.69ZM299.941 212.512C299.207 212.852 298.075 213.771 297.425 214.556C296.267 215.958 296.151 215.989 291.213 216.272C288.446 216.43 285.925 216.761 285.61 217.008C284.984 217.499 284.843 220.432 285.405 221.31C285.717 221.8 290.407 222.305 294.975 222.341C296.13 222.35 296.597 222.636 297.128 223.657C298.173 225.669 300.347 226.449 304.905 226.449C309.717 226.449 311.499 225.789 312.706 223.559C313.402 222.272 313.886 221.897 314.851 221.897C317.151 221.897 318.428 220.997 318.428 219.376C318.428 217.564 317.78 217 315.484 216.81C314.046 216.691 313.545 216.394 312.94 215.302C311.701 213.07 309.738 212.241 305.249 212.058C302.558 211.948 300.845 212.095 299.941 212.512ZM310.224 214.021C311.671 214.87 312.271 215.917 311.661 216.524C311.108 217.074 298.183 216.774 298.013 216.207C297.938 215.957 298.186 215.342 298.565 214.841C299.136 214.087 299.976 213.886 303.467 213.669C305.784 213.525 307.957 213.372 308.295 213.328C308.634 213.284 309.502 213.596 310.224 214.021ZM295.444 217.795C296.838 217.8 296.931 217.9 296.931 219.394V220.987H291.671H286.411V219.419C286.411 217.878 286.449 217.847 288.583 217.661C289.779 217.556 291.476 217.543 292.357 217.63C293.237 217.718 294.627 217.793 295.444 217.795ZM311.105 219.166L311.101 220.304L304.702 220.423L298.303 220.542V219.285V218.028H304.707H311.11L311.105 219.166ZM316.967 219.227C317.093 220.307 316.933 220.447 315.366 220.638C312.988 220.927 312.482 220.656 312.482 219.092C312.482 217.775 312.523 217.753 314.655 217.889C316.619 218.015 316.841 218.143 316.967 219.227ZM311.589 222.151C312.086 222.746 312.003 223.035 311.073 223.955C310.063 224.955 309.558 225.058 305.256 225.14C301.163 225.217 300.384 225.109 299.31 224.311C298.631 223.807 298.011 223.072 297.933 222.678C297.752 221.766 298.87 221.598 305.68 221.51C309.995 221.455 311.11 221.576 311.589 222.151ZM201.79 232.481C201.788 235.548 201.658 239.419 201.5 241.083L201.213 244.109L192.698 244.384C184.303 244.654 140.097 246.754 133.871 247.178C126.114 247.706 118.591 248.311 116.372 248.585L113.967 248.883L115.151 246.775C115.802 245.615 116.508 244.56 116.72 244.43C117.493 243.954 134.751 240.099 151.48 236.664C167.708 233.333 199.986 227.024 201.222 226.942C201.65 226.914 201.793 228.302 201.79 232.481ZM187.901 236.872C185.857 237.174 184.413 238.18 184.413 239.303C184.413 239.517 184.918 240.195 185.536 240.809C186.515 241.784 187.069 241.927 189.881 241.927C192.538 241.927 193.27 241.76 194.058 240.977C195.001 240.038 194.993 238.196 194.041 237.225C193.497 236.67 190.452 236.495 187.901 236.872ZM187.614 239.196C187.614 239.446 187.409 239.651 187.157 239.651C186.905 239.651 186.7 239.446 186.7 239.196C186.7 238.945 186.905 238.74 187.157 238.74C187.409 238.74 187.614 238.945 187.614 239.196ZM190.816 239.196C190.816 239.446 190.61 239.651 190.359 239.651C190.107 239.651 189.901 239.446 189.901 239.196C189.901 238.945 190.107 238.74 190.359 238.74C190.61 238.74 190.816 238.945 190.816 239.196ZM114.889 244.828C114.889 244.922 114.381 245.904 113.759 247.01L112.63 249.021L108.156 249.839C105.234 250.372 102.836 251.124 101.24 252.009L98.7959 253.362L99.6388 251.926C101.085 249.461 103.985 247.809 110.087 245.976C114.461 244.663 114.889 244.56 114.889 244.828ZM324.785 263.501C324.206 271.737 323.653 278.24 323.557 277.954C323.323 277.253 242.871 277.205 241.556 277.905C241.07 278.164 240.672 278.669 240.672 279.028C240.672 280.315 242.193 282.818 243.272 283.307C244.744 283.975 323.002 284.018 323.002 283.352C323.002 283.052 309.579 282.896 283.646 282.896H244.289L243.167 281.779C242.549 281.164 242.044 280.243 242.044 279.73C242.044 278.799 242.047 278.799 282.752 278.799H323.46L323.455 280.734C323.447 285.179 320.788 312.192 320.208 313.737L319.823 314.762H284.649C257.061 314.762 249.374 314.639 249.01 314.193C248.755 313.88 248.301 312.395 248 310.892C244.367 292.744 238.586 279.389 230.543 270.565C227.312 267.02 225.59 265.592 221.383 262.971C216.747 260.083 215.491 259.541 209.455 257.823C205.744 256.766 202.708 255.728 202.708 255.515C202.708 255.302 230.186 255.128 263.77 255.128C304.173 255.128 324.832 254.974 324.832 254.673C324.832 254.372 304.189 254.218 263.819 254.218C206.641 254.218 202.787 254.169 202.506 253.438C202.276 252.841 202.604 245.896 202.882 245.487C202.912 245.442 230.518 245.289 264.227 245.146L325.518 244.886L325.677 246.707C325.765 247.708 325.364 255.266 324.785 263.501ZM201.336 249.581V254.048L166.46 254.536C147.278 254.804 131.501 254.948 131.4 254.855C131.299 254.763 131.968 253.56 132.887 252.183C133.806 250.806 134.557 249.384 134.557 249.022C134.557 248.566 135.29 248.287 136.958 248.107C140.693 247.706 184.334 245.566 191.502 245.432C195.024 245.367 198.678 245.268 199.621 245.213L201.336 245.113V249.581ZM338.553 249.438V253.762H332.607H326.661V250.158C326.661 248.176 326.786 246.23 326.939 245.833C327.171 245.23 328.138 245.113 332.885 245.113H338.553V249.438ZM133.388 248.715C133.845 249.45 127.587 258.059 123.457 262.379C119.827 266.175 119.004 266.782 114.767 268.791C109.753 271.168 105.724 272.063 97.1653 272.698C93.2056 272.992 92.9349 272.957 92.9436 272.15C92.9614 270.425 96.9727 257.27 97.8367 256.102C99.3127 254.106 102.886 252.065 106.213 251.318C110.347 250.388 118.508 249.283 124.723 248.811C131.937 248.262 133.099 248.249 133.388 248.715ZM201.497 257.518C201.949 261.264 201.844 264.603 201.263 264.96C200.972 265.14 196.289 265.313 190.858 265.345L180.982 265.404L175.265 267.156C169.985 268.775 169.18 269.178 164.745 272.43C162.103 274.366 159.48 276.188 158.915 276.479C158.17 276.863 151.021 277.002 132.875 276.986C119.118 276.974 107.815 276.916 107.758 276.858C107.701 276.799 107.764 275.789 107.898 274.612C108.118 272.683 108.276 272.445 109.514 272.174C110.27 272.009 112.971 270.898 115.518 269.705C119.733 267.731 120.519 267.151 124.266 263.249C126.53 260.892 128.897 258.286 129.526 257.461L130.669 255.959L159.256 255.619C174.979 255.432 190.85 255.245 194.526 255.203L201.209 255.128L201.497 257.518ZM338.553 266.509V277.434H331.628H324.701L324.968 274.816C325.114 273.376 325.487 268.461 325.798 263.891L326.362 255.583H332.457H338.553V266.509ZM210.713 259.286C214.939 260.479 216.556 261.224 220.823 263.949C234.057 272.399 241.907 286.649 247.056 311.575C247.34 312.952 247.881 314.489 248.258 314.989C248.935 315.887 249.549 315.902 293.749 316.02L338.553 316.141V318.865V321.59H289.648H240.743L240.288 320.111C240.038 319.297 239.701 317.812 239.539 316.81C238.864 312.649 236.403 302.818 234.868 298.146C232.612 291.281 228.851 283.936 225.03 278.935C222.307 275.369 221.137 274.283 217.186 271.648C213.516 269.2 211.511 268.222 207.625 266.984L202.708 265.419V261.216V257.013L204.195 257.439C205.013 257.674 207.945 258.505 210.713 259.286ZM95.2214 258.847C95.2214 259.14 94.3871 262.344 93.3676 265.967C92.3476 269.59 91.6162 272.82 91.7415 273.146C91.8673 273.471 92.8557 273.801 93.9388 273.879C95.7899 274.011 95.9074 274.101 95.9074 275.385C95.9074 276.635 95.7615 276.763 94.1922 276.892C93.2491 276.97 92.477 277.205 92.477 277.414C92.477 278.008 88.795 279.673 88.0829 279.401C87.1388 279.04 87.3025 278.423 88.6477 277.271C89.5529 276.497 89.7711 275.996 89.5319 275.245C89.3567 274.696 88.9309 274.247 88.5855 274.247C88.2397 274.247 87.8359 274.052 87.6881 273.814C87.4713 273.465 88.9972 263.842 89.9833 259.339C90.1827 258.428 90.486 258.315 92.7144 258.315C94.324 258.315 95.2214 258.505 95.2214 258.847ZM88.3349 262.616C87.7439 266.261 87.2344 267.236 86.8813 265.395C86.6741 264.318 88.2969 258.555 88.6953 258.952C88.806 259.061 88.6436 260.71 88.3349 262.616ZM207.74 268.25C217.736 271.602 224.449 277.756 229.516 288.211C230.872 291.009 231.981 293.39 231.981 293.503C231.981 293.615 231.374 293.829 230.632 293.976C228.272 294.446 225.389 292.783 222.94 289.539C219.689 285.234 213.259 280.714 206.748 278.159C202.58 276.523 200.477 275.989 196.01 275.435C190.714 274.778 190.192 274.79 184.84 275.691C174.07 277.506 164.708 283.048 158.83 291.09L156.502 294.277H153.088C149.171 294.277 149.27 294.667 151.838 289.398C153.494 286 154.882 283.673 156.531 281.531C157.205 280.654 157.699 279.568 157.628 279.116C157.545 278.581 157.921 278.134 158.706 277.838C159.37 277.586 162.141 275.726 164.864 273.703C169.356 270.367 170.292 269.878 174.941 268.43C181.049 266.528 185.193 266.096 195.161 266.321C202.241 266.481 202.651 266.544 207.74 268.25ZM106.934 273.602C106.781 273.998 106.656 274.92 106.656 275.65V276.979H102.082H97.5083V275.457V273.935L100.596 273.477C105.65 272.727 107.259 272.758 106.934 273.602ZM197.677 276.715C203.66 277.582 210.343 280.411 215.744 284.365C224.068 290.457 229.797 300.315 231.292 311.12C231.959 315.934 231.957 316.806 231.263 321.96C230.61 326.812 230.204 328.242 228.244 332.599C225.121 339.543 220.672 344.881 214.514 349.073L210.083 352.09H191.391H172.698L168.545 349.228C159.84 343.229 153.989 334.245 151.842 323.581C150.949 319.146 150.904 318.186 151.344 312.978C151.766 307.984 152.07 306.639 153.718 302.471C159.032 289.024 170.132 279.524 183.498 276.981C188.848 275.963 192.066 275.902 197.677 276.715ZM538.891 281.797V287.526L536.76 286.341C530.284 282.738 524.726 279.449 524.719 279.214C524.695 278.377 533.499 276.224 537.404 276.111L538.891 276.068V281.797ZM544.878 276.549C548.683 277.025 553.985 278.596 553.985 279.247C553.985 279.433 551.361 281.082 548.153 282.912C544.945 284.743 541.858 286.536 541.292 286.897L540.263 287.553V281.811C540.263 278.652 540.436 276.068 540.648 276.068C540.859 276.068 542.763 276.284 544.878 276.549ZM655.068 283.124C655.068 289.93 655.223 289.642 651.924 288.985L650.494 288.7V283.105C650.494 276.991 650.454 277.075 653.353 277.015L655.068 276.979V283.124ZM658.37 279.424C658.244 280.939 658.36 281.988 658.676 282.182C659.309 282.571 659.351 284.262 658.727 284.262C658.078 284.262 658.158 288.521 658.819 289.178C659.245 289.603 659.195 289.725 658.59 289.725C657.895 289.725 657.812 289.046 657.812 283.352C657.812 279.846 657.984 276.979 658.193 276.979C658.402 276.979 658.482 278.079 658.37 279.424ZM156.512 279.195C156.512 279.412 155.555 280.999 154.386 282.723C149.585 289.799 145.485 300.86 143.441 312.252C142.813 315.754 142.109 318.809 141.876 319.04C141.16 319.752 136.487 320.177 129.145 320.197C125.288 320.208 121.989 320.305 121.815 320.412C121.123 320.837 113.851 319.747 107.571 318.276C100.964 316.728 91.5618 312.994 89.5872 311.134C88.7964 310.388 88.9597 310.336 92.9248 310.056C97.6881 309.719 101.183 308.465 102.505 306.616C103.67 304.988 104.227 302.555 104.567 297.608C104.837 293.686 104.792 293.37 103.84 292.487C102.888 291.604 102.286 291.546 94.2201 291.546H85.6161V287.662C85.6161 284.513 85.4771 283.725 84.8802 283.497C84.3698 283.302 84.7549 283.014 86.138 282.557C87.2349 282.195 88.6464 281.417 89.2753 280.83C89.9042 280.243 90.9333 279.558 91.5622 279.31C92.9975 278.742 156.512 278.629 156.512 279.195ZM338.553 281.076V282.896H331.464H324.374V281.796C324.374 279.26 324.39 279.255 331.742 279.255H338.553V281.076ZM530.712 284.148C534.954 286.59 538.426 288.705 538.429 288.849C538.431 288.994 536.736 289.37 534.66 289.686C531.75 290.128 530.044 290.716 527.206 292.254C519 296.703 514.355 303.012 512.8 311.819C512.032 316.171 512.031 316.593 512.79 320.696C514.41 329.455 519.786 336.647 527.685 340.62C534.921 344.26 544.127 344.25 551.459 340.594C559.462 336.602 565.145 328.7 566.27 319.997C567.8 308.165 562.38 297.855 551.622 292.135C548.78 290.623 547.165 290.093 544.112 289.667C541.782 289.343 540.391 288.96 540.639 288.713C540.868 288.485 544.402 286.368 548.493 284.009L555.93 279.719L557.82 280.55C558.859 281.008 561.56 282.731 563.822 284.38C569.327 288.392 573.593 293.898 576.613 300.889C577.8 303.637 578.86 306.807 578.969 307.933C579.078 309.06 579.376 311.313 579.632 312.941C579.99 315.217 579.929 317.159 579.369 321.362C578.735 326.118 578.336 327.502 576.281 332.06C573.013 339.31 568.378 345.008 562.394 349.132L558.102 352.09H548.598H539.094L524.533 343.708C516.524 339.097 509.793 335.148 509.575 334.931C509.35 334.707 509.565 332.286 510.07 329.362C510.985 324.053 510.958 323.411 509.819 323.411C509.257 323.411 509.16 320.908 509.16 306.399V289.388L513.63 285.669C517.171 282.723 521.306 280.06 522.827 279.746C522.923 279.726 526.471 281.707 530.712 284.148ZM338.553 299.512V314.762H329.814C322.527 314.762 321.115 314.656 321.319 314.127C321.454 313.778 322.101 307.991 322.756 301.267C323.412 294.543 324.059 287.966 324.194 286.652L324.44 284.262H331.497H338.553V299.512ZM186.471 289.668C183.402 290.238 181.441 290.936 178.767 292.41C170.674 296.872 166.002 303.351 164.608 312.047C163.971 316.018 163.979 316.732 164.702 320.69C166.278 329.32 171.361 336.226 179.291 340.513C183.947 343.031 189.437 343.856 195.699 342.979C207.021 341.392 216.474 331.89 218.256 320.304C219.601 311.564 216.606 302.733 210.355 297.008C205.655 292.703 201.12 290.426 195.468 289.532C192.975 289.137 190.857 288.834 190.762 288.859C190.666 288.883 188.735 289.248 186.471 289.668ZM647.75 300.195V311.575H646.149H644.548V300.195V288.814H646.149H647.75V300.195ZM356.465 292.002L356.62 294.734L349.874 294.733L343.127 294.732V292.001V289.269H349.719H356.31L356.465 292.002ZM362.869 292.002L363.024 294.734H360.966H358.907L359.062 292.002L359.217 289.269H360.966H362.714L362.869 292.002ZM485.45 292.002L485.605 294.734H425.458H365.311L365.466 292.002L365.621 289.269H425.458H485.295L485.45 292.002ZM491.396 292.002L491.551 294.734H489.493H487.434L487.589 292.002L487.744 289.269H489.493H491.241L491.396 292.002ZM507.788 289.536C507.788 289.683 507.017 290.91 506.073 292.262L504.358 294.721L499.098 294.728L493.838 294.734L493.993 292.002L494.148 289.269H500.968C504.719 289.269 507.788 289.39 507.788 289.536ZM575.107 290.198C575.309 291.478 576.136 291.544 576.314 290.294C576.454 289.315 576.65 289.269 580.733 289.269H585.006L585.161 292.002L585.316 294.734L580.056 294.718C574.862 294.704 574.785 294.688 573.91 293.466C573.422 292.785 572.523 291.563 571.912 290.749L570.8 289.269H572.88C574.622 289.269 574.985 289.421 575.107 290.198ZM591.564 292.002L591.719 294.734H589.432H587.146L587.301 292.002L587.456 289.269H589.432H591.409L591.564 292.002ZM615.732 292.001V294.732L604.641 294.733L593.549 294.734L593.704 292.002L593.859 289.269H604.796H615.732V292.001ZM629.912 302.471V315.672H628.311C627.17 315.672 626.71 315.47 626.71 314.967C626.71 313.634 625.32 311.588 624.229 311.315C622.489 310.881 621.264 311.83 620.937 313.866C620.665 315.557 620.548 315.672 619.104 315.672H617.562V302.471V289.269H623.737H629.912V302.471ZM643.176 290.358C643.176 291.262 642.34 291.931 638.259 294.296C635.555 295.864 632.879 297.446 632.313 297.813L631.284 298.479V293.874V289.269H637.23H643.176V290.358ZM195.988 290.681C200.559 291.376 205.723 294.088 209.732 297.898C213.857 301.818 216.103 306.14 217.129 312.129C217.789 315.984 217.794 316.804 217.179 320.314C216.185 325.978 213.757 330.495 209.491 334.616C202.872 341.011 195.937 343.282 187.137 341.937C176.438 340.302 167.326 331.124 165.663 320.307C164.33 311.637 166.915 304.032 173.293 297.864C179.757 291.612 187.016 289.315 195.988 290.681ZM544.063 290.677C548.665 291.373 554.388 294.411 558.027 298.09C563.974 304.102 566.379 311.671 565.097 320.345C564.259 326.022 561.966 330.365 557.566 334.616C550.946 341.011 544.012 343.282 535.212 341.937C530.164 341.166 524.738 338.322 520.981 334.479C517.58 330.999 514.561 325.001 513.735 320.083C511.954 309.474 517.757 298.31 527.685 293.248C533.224 290.423 537.717 289.718 544.063 290.677ZM186.471 291.957C173.038 294.804 164.738 306.92 166.902 320.52C167.671 325.348 170.39 330.688 173.756 333.977C177.026 337.173 182.56 339.965 187.363 340.843C190.921 341.493 191.716 341.497 195.247 340.883C206.049 339.007 214.685 330.407 216.055 320.161C217.954 305.968 209.468 294.221 195.567 291.801C190.801 290.971 191.15 290.965 186.471 291.957ZM195.812 292.935C205.373 294.562 213.575 302.98 215.053 312.681C217.955 331.736 197.638 346.413 180.754 337.459C168.594 331.011 164.266 317.481 170.445 305.235C172.719 300.73 175.858 297.664 180.764 295.156C183.72 293.645 190.227 291.971 191.96 292.275C192.463 292.363 194.196 292.66 195.812 292.935ZM507.788 307.706C507.788 321.076 507.69 323.411 507.129 323.411C506.021 323.411 505.954 324.055 506.655 328.016C507.504 332.818 507.538 334.269 506.782 333.517C506.145 332.883 505.044 332.788 505.044 333.366C505.044 333.584 512.124 337.835 520.777 342.812L536.511 351.862L528.674 351.987L520.837 352.112L516.679 349.256C507.723 343.102 501.869 334.063 499.955 323.429C499.121 318.792 499.063 317.535 499.469 312.713C499.859 308.084 500.213 306.505 501.794 302.367C502.82 299.681 504.537 296.255 505.61 294.754C506.682 293.253 507.611 292.019 507.674 292.013C507.737 292.006 507.788 299.068 507.788 307.706ZM102.756 293.073C103.704 293.763 103.774 296.102 103.008 301.484C102.522 304.901 101.552 306.464 99.2272 307.575C97.362 308.466 92.7853 309.29 89.6709 309.295C87.9004 309.299 87.4247 309.107 86.7857 308.136C86.3644 307.497 85.569 306.809 85.0179 306.606C84.0967 306.269 83.9782 305.78 83.5579 300.599C82.8736 292.164 82.2287 292.961 89.8772 292.796C93.4453 292.72 97.6117 292.611 99.1362 292.556C100.893 292.493 102.218 292.682 102.756 293.073ZM643.176 298.601V304.292H637.23H631.284L631.301 301.902L631.317 299.512L636.904 296.248C639.976 294.454 642.644 292.968 642.833 292.948C643.021 292.928 643.176 295.472 643.176 298.601ZM233.464 297.513C235.227 302.598 236.561 307.653 236.221 307.957C236.027 308.131 235.02 308.399 233.983 308.554L232.097 308.836L231.808 307.036C231.649 306.045 230.53 302.914 229.322 300.076L227.125 294.917L229.869 294.987L232.613 295.058L233.464 297.513ZM154.971 296.667C154.615 297.23 153.43 300.098 152.338 303.04L150.351 308.389H147.665C145.708 308.389 145.037 308.234 145.191 307.82C145.308 307.507 146.19 304.639 147.153 301.447L148.903 295.643H152.261H155.618L154.971 296.667ZM501.204 300.991L499.285 305.885L481.82 306.004L464.354 306.123L464.814 304.92C465.87 302.157 463.816 300.651 458.985 300.647C456.01 300.644 455.84 300.585 455.095 299.282C453.982 297.334 452.258 297.483 451.124 299.626C450.642 300.537 450.234 300.65 447.418 300.65C442.533 300.65 440.877 301.892 441.654 304.975L441.941 306.113H392.239H342.538L342.829 303.04C342.99 301.35 343.122 299.096 343.124 298.032L343.127 296.098H423.125H503.122L501.204 300.991ZM615.732 300.386V304.675L614.475 304.937C609.398 305.994 603.138 306.322 592.046 306.113L580.024 305.885L578.216 301.823C577.222 299.588 576.289 297.386 576.143 296.929C575.889 296.133 576.719 296.098 595.805 296.098H615.732V300.386ZM454.489 300.154C455.004 301.769 456.853 302.54 459.946 302.428C463.026 302.317 463.879 302.585 463.879 303.666C463.879 304.044 462.06 308.09 459.838 312.657C456.339 319.849 455.609 321.04 454.391 321.541C451.877 322.578 450.952 321.48 446.39 312.044C443.591 306.254 442.437 303.408 442.713 302.967C443.008 302.497 444.022 302.345 446.522 302.4C450.095 302.478 450.943 302.149 451.928 300.309C452.598 299.058 454.11 298.966 454.489 300.154ZM640.317 305.995C638.619 306.083 635.841 306.083 634.142 305.995C632.444 305.907 633.834 305.836 637.23 305.836C640.626 305.836 642.016 305.907 640.317 305.995ZM344.042 315.445V322.956H341.984C339.75 322.956 339.138 322.196 341.183 321.961L342.441 321.818L342.568 314.875C342.672 309.12 342.809 307.933 343.368 307.933C343.935 307.933 344.042 309.131 344.042 315.445ZM412.193 315.217V322.5L407.505 322.519C404.926 322.529 394.584 322.722 384.521 322.948C374.459 323.174 361.646 323.236 356.049 323.085L345.872 322.811V315.372V307.933H379.033H412.193V315.217ZM415.853 315.217V322.5H414.709H413.566V315.217V307.933H414.709H415.853V315.217ZM444.782 311.326C446.377 314.535 446.435 314.8 445.837 316.22C445.079 318.022 443.535 319.532 441.773 320.197C440.608 320.636 435.46 321.098 423.4 321.846C421.135 321.986 418.82 322.194 418.254 322.309L417.225 322.518V315.226V307.933H430.16H443.095L444.782 311.326ZM498.525 310.918C498.392 312.559 498.168 314.017 498.027 314.159C497.316 314.866 460.219 315.204 460.219 314.503C460.219 314.436 460.344 314.057 460.497 313.661C460.725 313.069 461.611 312.941 465.479 312.941C469.419 312.941 470.231 312.819 470.472 312.194C470.631 311.783 470.655 311.117 470.527 310.714C470.331 310.099 469.668 310.008 466.4 310.143C464.258 310.231 462.506 310.166 462.506 309.999C462.506 309.831 462.72 309.298 462.98 308.814C463.435 307.967 464.121 307.933 481.109 307.933H498.766L498.525 310.918ZM586.421 308.105C586.317 308.199 584.842 308.42 583.143 308.596C581.04 308.814 580.056 308.76 580.056 308.425C580.056 308.119 581.292 307.933 583.334 307.933C585.137 307.933 586.526 308.011 586.421 308.105ZM587.146 309.54C580.803 310.586 580.513 310.616 580.513 310.235C580.513 310.031 582.108 309.663 584.058 309.418C589.288 308.761 591.372 308.844 587.146 309.54ZM188.758 310.397C183.077 312.91 183.662 320.947 189.635 322.443C194.634 323.696 198.804 319.918 197.874 314.978C197.107 310.91 192.656 308.673 188.758 310.397ZM536.832 310.397C536.078 310.731 534.946 311.559 534.317 312.237C533.347 313.282 533.173 313.909 533.173 316.362C533.173 318.921 533.323 319.41 534.476 320.607C537.899 324.163 544.549 322.848 545.76 318.374C546.748 314.721 544.964 311.122 541.72 310.225C539.53 309.62 538.508 309.656 536.832 310.397ZM194.475 311.967C195.104 312.41 195.995 313.526 196.456 314.447C198.069 317.677 195.804 321.097 191.797 321.481C189.72 321.679 189.411 321.572 187.78 320.084C186.153 318.599 186.016 318.287 186.048 316.122C186.078 314.016 186.242 313.646 187.622 312.559C190.233 310.505 192.163 310.338 194.475 311.967ZM541.034 311.15C544.121 312.314 545.77 315.493 544.652 318.123C543.735 320.278 542.359 321.243 539.861 321.482C537.797 321.679 537.483 321.57 535.855 320.084C534.224 318.596 534.091 318.291 534.123 316.101C534.154 313.973 534.318 313.598 535.724 312.447C536.585 311.742 537.702 311.081 538.205 310.977C538.708 310.874 539.26 310.761 539.433 310.727C539.605 310.692 540.326 310.883 541.034 311.15ZM624.911 314.648L625.17 316.583H623.504C621.891 316.583 621.843 316.535 622.02 315.103C622.312 312.75 622.525 312.413 623.621 312.568C624.455 312.685 624.701 313.082 624.911 314.648ZM493.292 316.012C490.476 316.091 485.742 316.092 482.772 316.012C479.802 315.933 482.106 315.867 487.892 315.867C493.678 315.867 496.108 315.932 493.292 316.012ZM498.101 318.29C498.181 318.853 498.121 319.314 497.968 319.314C497.487 319.314 494.066 317.487 494.066 317.23C494.066 317.096 494.941 317.048 496.01 317.126C497.626 317.242 497.979 317.438 498.101 318.29ZM449.024 320.257C449.519 321.739 450.145 322.706 450.776 322.959C451.446 323.228 450.486 323.362 447.756 323.382L443.753 323.411V322.221C443.753 320.7 445.968 318.024 447.262 317.981C448.058 317.955 448.406 318.403 449.024 320.257ZM495.896 319.643L498.412 321.111L499.136 324.992C499.534 327.127 499.778 328.873 499.68 328.873C499.581 328.873 498.564 328.162 497.42 327.293C496.159 326.334 493.85 325.259 491.55 324.562C487.802 323.424 487.576 323.411 471.359 323.397C461.32 323.389 455.234 323.223 455.668 322.97C456.058 322.743 456.872 321.505 457.477 320.22L458.577 317.883L475.979 318.029L493.38 318.176L495.896 319.643ZM442.381 326.37V331.605H405.561H368.741V328.014V324.422L378.461 324.122C383.807 323.957 394.561 323.746 402.359 323.653C419.587 323.447 440.327 322.168 442.267 321.192C442.33 321.161 442.381 323.49 442.381 326.37Z" fill="#E3E2E8"></path> </g> <defs> <clipPath id="clip0_324_32"> <rect width="340" height="380" fill="white"></rect> </clipPath> </defs> </svg> 